<svg width="180" height="220" viewBox="0 0 180 220" xmlns="http://www.w3.org/2000/svg">
  <defs>
    <!-- Blue gradient jelly gloss -->
    <linearGradient id="jellyBlue" x1="0%" y1="0%" x2="100%" y2="100%">
      <stop offset="0%" stop-color="#6fd4ff"/>
      <stop offset="100%" stop-color="#0055ff"/>
    </linearGradient>
  </defs>

  <g transform="translate(10, 20)">
    <!-- Readable jelly "s" -->
    <path d="
      M130,80
      C130,55 105,40 75,40
      C45,40 25,60 40,80
      C55,100 85,90 100,100
      C115,110 110,125 85,125
      C60,125 45,120 35,110
      C30,105 25,115 30,125
      C40,145 70,160 100,155
      C130,150 145,130 135,110
      C125,90 95,100 80,90
      C65,80 75,70 90,70
      C105,70 115,75 120,85
      C125,95 130,90 130,80 Z"
      fill="url(#jellyBlue)" stroke="white" stroke-width="6" stroke-linejoin="round" />

    <!-- Glossy shine on top -->
    <path d="M50,55 C70,35 110,45 125,65"
          fill="none" stroke="white" stroke-width="4" opacity="0.6" stroke-linecap="round"/>

    <!-- Bubble highlights -->
    <circle cx="95" cy="110" r="7" fill="white" opacity="0.2"/>
    <circle cx="115" cy="80" r="5" fill="white" opacity="0.3"/>
  </g>
</svg>
